<svg width="48" height="48" viewBox="0 0 48 48" fill="none" xmlns="http://www.w3.org/2000/svg">
<path d="M16 0.5H32C40.5604 0.5 47.5 7.43959 47.5 16V32C47.5 40.5604 40.5604 47.5 32 47.5H16C7.43959 47.5 0.5 40.5604 0.5 32V16C0.5 7.43959 7.43959 0.5 16 0.5Z" fill="white"/>
<path d="M16 0.5H32C40.5604 0.5 47.5 7.43959 47.5 16V32C47.5 40.5604 40.5604 47.5 32 47.5H16C7.43959 47.5 0.5 40.5604 0.5 32V16C0.5 7.43959 7.43959 0.5 16 0.5Z" stroke="#E4E8ED"/>
<g clip-path="url(#clip0_1133_22089)">
<path d="M35.9499 32.0703L27.1289 37.1503C26.9282 37.2586 26.6993 37.3222 26.4514 37.3222C25.6654 37.3222 25.0281 36.6863 25.0281 35.902V26.3332C25.0281 25.695 25.1721 25.0732 25.4364 24.5127C26.0006 24.5692 26.5553 24.7459 27.0628 25.0379L35.9475 30.1556C36.6864 30.5795 36.6864 31.644 35.9475 32.0703" fill="#40BCAA"/>
<path d="M35.4778 17.8476L27.1713 22.6332C26.4018 23.076 25.8046 23.7378 25.4388 24.515C25.1744 25.0755 25.0304 25.6949 25.0304 26.3355V35.9043C25.0304 36.6886 25.6677 37.3245 26.4538 37.3245C26.6993 37.3245 26.9306 37.2609 27.1312 37.1525L26.2154 37.6824C25.4836 38.104 24.5819 38.1087 23.8478 37.6942L22.9107 37.1643L14.4107 32.3669C14.2833 32.2939 14.1582 32.2162 14.0425 32.1314C14.0378 32.1314 14.0354 32.1267 14.0307 32.122C12.9638 31.3542 12.3217 30.1084 12.3335 28.7754L12.428 18.9475C12.4421 17.5014 13.2187 16.1732 14.4745 15.4501L22.9839 10.5468C24.2491 9.81904 25.8094 9.81904 27.0769 10.5468L35.4754 15.3865C36.4243 15.9353 36.4243 17.3013 35.4754 17.8476" fill="#7957FF"/>
</g>
<defs>
<clipPath id="clip0_1133_22089">
<rect width="28" height="28" fill="white" transform="translate(10 10)"/>
</clipPath>
</defs>
</svg>
