<svg width="48" height="48" viewBox="0 0 48 48" fill="none" xmlns="http://www.w3.org/2000/svg">
<path d="M0 16C0 7.16344 7.16344 0 16 0H32C40.8366 0 48 7.16344 48 16V32C48 40.8366 40.8366 48 32 48H16C7.16344 48 0 40.8366 0 32V16Z" fill="#40BCAA"/>
<path fill-rule="evenodd" clip-rule="evenodd" d="M18.1667 15.833C18.1667 13.9 19.7337 12.333 21.6667 12.333H26.3334C28.2664 12.333 29.8334 13.9 29.8334 15.833V16.9997H32.1667C34.0997 16.9997 35.6667 18.5667 35.6667 20.4997V32.1663C35.6667 34.0993 34.0997 35.6663 32.1667 35.6663H15.8334C13.9004 35.6663 12.3334 34.0993 12.3334 32.1663V20.4997C12.3334 18.5667 13.9004 16.9997 15.8334 16.9997H18.1667V15.833ZM20.5 16.9997H27.5V15.833C27.5 15.1887 26.9777 14.6663 26.3334 14.6663H21.6667C21.0224 14.6663 20.5 15.1887 20.5 15.833V16.9997ZM15.8334 19.333C15.189 19.333 14.6667 19.8553 14.6667 20.4997V24.4113C14.6988 24.4248 14.7321 24.4387 14.7664 24.4529C15.2663 24.6598 15.9974 24.9385 16.9056 25.2179C18.7274 25.7785 21.233 26.333 24 26.333C26.7671 26.333 29.2726 25.7785 31.0944 25.2179C32.0027 24.9385 32.7337 24.6598 33.2337 24.4529C33.268 24.4387 33.3012 24.4248 33.3334 24.4113V20.4997C33.3334 19.8553 32.811 19.333 32.1667 19.333H15.8334ZM33.3334 26.9204C32.89 27.086 32.3685 27.2672 31.7806 27.4481C29.8108 28.0542 27.0663 28.6663 24 28.6663C20.9337 28.6663 18.1893 28.0542 16.2194 27.4481C15.6316 27.2672 15.1101 27.086 14.6667 26.9204V32.1663C14.6667 32.8107 15.189 33.333 15.8334 33.333H32.1667C32.811 33.333 33.3334 32.8107 33.3334 32.1663V26.9204ZM22.8334 22.833C22.8334 22.1887 23.3557 21.6663 24 21.6663H24.0117C24.656 21.6663 25.1784 22.1887 25.1784 22.833C25.1784 23.4773 24.656 23.9997 24.0117 23.9997H24C23.3557 23.9997 22.8334 23.4773 22.8334 22.833Z" fill="white"/>
</svg>
